<svg width="509" height="407" viewBox="0 0 509 407" fill="none" xmlns="http://www.w3.org/2000/svg">
<g clip-path="url(#clip0_14_171)">
<path opacity="0.1" d="M146.221 69.8021H108.04C105.837 69.8021 104.052 71.5883 104.052 73.7916V79.7731C104.052 81.9764 105.837 83.7625 108.04 83.7625H146.221C148.424 83.7625 150.209 81.9764 150.209 79.7731V73.7916C150.209 71.5883 148.424 69.8021 146.221 69.8021Z" fill="#6C63FF"/>
<path opacity="0.1" d="M194.525 83.7625H156.344C154.141 83.7625 152.356 85.5486 152.356 87.752V93.7335C152.356 95.9368 154.141 97.7229 156.344 97.7229H194.525C196.728 97.7229 198.513 95.9368 198.513 93.7335V87.752C198.513 85.5486 196.728 83.7625 194.525 83.7625Z" fill="#6C63FF"/>
<path opacity="0.1" d="M242.829 97.723H204.648C202.445 97.723 200.66 99.5091 200.66 101.712V107.694C200.66 109.897 202.445 111.683 204.648 111.683H242.829C245.032 111.683 246.817 109.897 246.817 107.694V101.712C246.817 99.5091 245.032 97.723 242.829 97.723Z" fill="#6C63FF"/>
<path opacity="0.1" d="M146.221 48.8615H108.04C105.837 48.8615 104.052 50.6476 104.052 52.8509V58.8324C104.052 61.0357 105.837 62.8219 108.04 62.8219H146.221C148.424 62.8219 150.209 61.0357 150.209 58.8324V52.8509C150.209 50.6476 148.424 48.8615 146.221 48.8615Z" fill="#6C63FF"/>
<path opacity="0.1" d="M194.525 62.8219H156.344C154.141 62.8219 152.356 64.608 152.356 66.8114V72.7929C152.356 74.9962 154.141 76.7823 156.344 76.7823H194.525C196.728 76.7823 198.513 74.9962 198.513 72.7929V66.8114C198.513 64.608 196.728 62.8219 194.525 62.8219Z" fill="#6C63FF"/>
<path opacity="0.1" d="M242.829 76.7823H204.648C202.445 76.7823 200.66 78.5685 200.66 80.7718V86.7533C200.66 88.9566 202.445 90.7428 204.648 90.7428H242.829C245.032 90.7428 246.817 88.9566 246.817 86.7533V80.7718C246.817 78.5685 245.032 76.7823 242.829 76.7823Z" fill="#6C63FF"/>
<path opacity="0.1" d="M296.5 69.8021H258.319C256.116 69.8021 254.331 71.5883 254.331 73.7916V79.7731C254.331 81.9764 256.116 83.7625 258.319 83.7625H296.5C298.703 83.7625 300.488 81.9764 300.488 79.7731V73.7916C300.488 71.5883 298.703 69.8021 296.5 69.8021Z" fill="#6C63FF"/>
<path opacity="0.1" d="M344.804 83.7625H306.623C304.42 83.7625 302.635 85.5486 302.635 87.752V93.7335C302.635 95.9368 304.42 97.7229 306.623 97.7229H344.804C347.007 97.7229 348.792 95.9368 348.792 93.7335V87.752C348.792 85.5486 347.007 83.7625 344.804 83.7625Z" fill="#6C63FF"/>
<path opacity="0.1" d="M393.108 97.723H354.927C352.724 97.723 350.939 99.5091 350.939 101.712V107.694C350.939 109.897 352.724 111.683 354.927 111.683H393.108C395.311 111.683 397.096 109.897 397.096 107.694V101.712C397.096 99.5091 395.311 97.723 393.108 97.723Z" fill="#6C63FF"/>
<path opacity="0.1" d="M296.5 48.8615H258.319C256.116 48.8615 254.331 50.6476 254.331 52.8509V58.8324C254.331 61.0357 256.116 62.8219 258.319 62.8219H296.5C298.703 62.8219 300.488 61.0357 300.488 58.8324V52.8509C300.488 50.6476 298.703 48.8615 296.5 48.8615Z" fill="#6C63FF"/>
<path opacity="0.1" d="M344.804 62.8219H306.623C304.42 62.8219 302.635 64.608 302.635 66.8114V72.7929C302.635 74.9962 304.42 76.7823 306.623 76.7823H344.804C347.007 76.7823 348.792 74.9962 348.792 72.7929V66.8114C348.792 64.608 347.007 62.8219 344.804 62.8219Z" fill="#6C63FF"/>
<path opacity="0.1" d="M393.108 76.7823H354.927C352.724 76.7823 350.939 78.5685 350.939 80.7718V86.7533C350.939 88.9566 352.724 90.7428 354.927 90.7428H393.108C395.311 90.7428 397.096 88.9566 397.096 86.7533V80.7718C397.096 78.5685 395.311 76.7823 393.108 76.7823Z" fill="#6C63FF"/>
<path opacity="0.1" d="M146.221 20.9406H108.04C105.837 20.9406 104.052 22.7268 104.052 24.9301V30.9116C104.052 33.1149 105.837 34.901 108.04 34.901H146.221C148.424 34.901 150.209 33.1149 150.209 30.9116V24.9301C150.209 22.7268 148.424 20.9406 146.221 20.9406Z" fill="#6C63FF"/>
<path opacity="0.1" d="M194.525 34.9011H156.344C154.141 34.9011 152.356 36.6872 152.356 38.8905V44.872C152.356 47.0753 154.141 48.8615 156.344 48.8615H194.525C196.728 48.8615 198.513 47.0753 198.513 44.872V38.8905C198.513 36.6872 196.728 34.9011 194.525 34.9011Z" fill="#6C63FF"/>
<path opacity="0.1" d="M242.829 48.8615H204.648C202.445 48.8615 200.66 50.6476 200.66 52.8509V58.8324C200.66 61.0357 202.445 62.8219 204.648 62.8219H242.829C245.032 62.8219 246.817 61.0357 246.817 58.8324V52.8509C246.817 50.6476 245.032 48.8615 242.829 48.8615Z" fill="#6C63FF"/>
<path opacity="0.1" d="M146.221 0H108.04C105.837 0 104.052 1.78614 104.052 3.98946V9.97096C104.052 12.1743 105.837 13.9604 108.04 13.9604H146.221C148.424 13.9604 150.209 12.1743 150.209 9.97096V3.98946C150.209 1.78614 148.424 0 146.221 0Z" fill="#6C63FF"/>
<path opacity="0.1" d="M194.525 13.9604H156.344C154.141 13.9604 152.356 15.7466 152.356 17.9499V23.9314C152.356 26.1347 154.141 27.9209 156.344 27.9209H194.525C196.728 27.9209 198.513 26.1347 198.513 23.9314V17.9499C198.513 15.7466 196.728 13.9604 194.525 13.9604Z" fill="#6C63FF"/>
<path opacity="0.1" d="M242.829 27.9208H204.648C202.445 27.9208 200.66 29.707 200.66 31.9103V37.8918C200.66 40.0951 202.445 41.8813 204.648 41.8813H242.829C245.032 41.8813 246.817 40.0951 246.817 37.8918V31.9103C246.817 29.707 245.032 27.9208 242.829 27.9208Z" fill="#6C63FF"/>
<path opacity="0.1" d="M296.5 20.9406H258.319C256.116 20.9406 254.331 22.7268 254.331 24.9301V30.9116C254.331 33.1149 256.116 34.901 258.319 34.901H296.5C298.703 34.901 300.488 33.1149 300.488 30.9116V24.9301C300.488 22.7268 298.703 20.9406 296.5 20.9406Z" fill="#6C63FF"/>
<path opacity="0.1" d="M344.804 34.9011H306.623C304.42 34.9011 302.635 36.6872 302.635 38.8905V44.872C302.635 47.0753 304.42 48.8615 306.623 48.8615H344.804C347.007 48.8615 348.792 47.0753 348.792 44.872V38.8905C348.792 36.6872 347.007 34.9011 344.804 34.9011Z" fill="#6C63FF"/>
<path opacity="0.1" d="M393.108 48.8615H354.927C352.724 48.8615 350.939 50.6476 350.939 52.8509V58.8324C350.939 61.0357 352.724 62.8219 354.927 62.8219H393.108C395.311 62.8219 397.096 61.0357 397.096 58.8324V52.8509C397.096 50.6476 395.311 48.8615 393.108 48.8615Z" fill="#6C63FF"/>
<path opacity="0.1" d="M296.5 0H258.319C256.116 0 254.331 1.78614 254.331 3.98946V9.97096C254.331 12.1743 256.116 13.9604 258.319 13.9604H296.5C298.703 13.9604 300.488 12.1743 300.488 9.97096V3.98946C300.488 1.78614 298.703 0 296.5 0Z" fill="#6C63FF"/>
<path opacity="0.1" d="M344.804 13.9604H306.623C304.42 13.9604 302.635 15.7466 302.635 17.9499V23.9314C302.635 26.1347 304.42 27.9209 306.623 27.9209H344.804C347.007 27.9209 348.792 26.1347 348.792 23.9314V17.9499C348.792 15.7466 347.007 13.9604 344.804 13.9604Z" fill="#6C63FF"/>
<path opacity="0.1" d="M393.108 27.9208H354.927C352.724 27.9208 350.939 29.707 350.939 31.9103V37.8918C350.939 40.0951 352.724 41.8813 354.927 41.8813H393.108C395.311 41.8813 397.096 40.0951 397.096 37.8918V31.9103C397.096 29.707 395.311 27.9208 393.108 27.9208Z" fill="#6C63FF"/>
<path opacity="0.1" d="M146.221 318.405H108.04C105.837 318.405 104.052 320.191 104.052 322.394V328.376C104.052 330.579 105.837 332.365 108.04 332.365H146.221C148.424 332.365 150.209 330.579 150.209 328.376V322.394C150.209 320.191 148.424 318.405 146.221 318.405Z" fill="#6C63FF"/>
<path opacity="0.1" d="M194.525 332.365H156.344C154.141 332.365 152.356 334.152 152.356 336.355V342.336C152.356 344.54 154.141 346.326 156.344 346.326H194.525C196.728 346.326 198.513 344.54 198.513 342.336V336.355C198.513 334.152 196.728 332.365 194.525 332.365Z" fill="#6C63FF"/>
<path opacity="0.1" d="M242.829 346.326H204.648C202.445 346.326 200.66 348.112 200.66 350.315V356.297C200.66 358.5 202.445 360.286 204.648 360.286H242.829C245.032 360.286 246.817 358.5 246.817 356.297V350.315C246.817 348.112 245.032 346.326 242.829 346.326Z" fill="#6C63FF"/>
<path opacity="0.1" d="M146.221 297.464H108.04C105.837 297.464 104.052 299.25 104.052 301.454V307.435C104.052 309.639 105.837 311.425 108.04 311.425H146.221C148.424 311.425 150.209 309.639 150.209 307.435V301.454C150.209 299.25 148.424 297.464 146.221 297.464Z" fill="#6C63FF"/>
<path opacity="0.1" d="M194.525 311.425H156.344C154.141 311.425 152.356 313.211 152.356 315.414V321.396C152.356 323.599 154.141 325.385 156.344 325.385H194.525C196.728 325.385 198.513 323.599 198.513 321.396V315.414C198.513 313.211 196.728 311.425 194.525 311.425Z" fill="#6C63FF"/>
<path opacity="0.1" d="M242.829 325.385H204.648C202.445 325.385 200.66 327.171 200.66 329.375V335.356C200.66 337.56 202.445 339.346 204.648 339.346H242.829C245.032 339.346 246.817 337.56 246.817 335.356V329.375C246.817 327.171 245.032 325.385 242.829 325.385Z" fill="#6C63FF"/>
<path opacity="0.1" d="M296.5 318.405H258.319C256.116 318.405 254.331 320.191 254.331 322.394V328.376C254.331 330.579 256.116 332.365 258.319 332.365H296.5C298.703 332.365 300.488 330.579 300.488 328.376V322.394C300.488 320.191 298.703 318.405 296.5 318.405Z" fill="#6C63FF"/>
<path opacity="0.1" d="M344.804 332.365H306.623C304.42 332.365 302.635 334.152 302.635 336.355V342.336C302.635 344.54 304.42 346.326 306.623 346.326H344.804C347.007 346.326 348.792 344.54 348.792 342.336V336.355C348.792 334.152 347.007 332.365 344.804 332.365Z" fill="#6C63FF"/>
<path opacity="0.1" d="M393.108 346.326H354.927C352.724 346.326 350.939 348.112 350.939 350.315V356.297C350.939 358.5 352.724 360.286 354.927 360.286H393.108C395.311 360.286 397.096 358.5 397.096 356.297V350.315C397.096 348.112 395.311 346.326 393.108 346.326Z" fill="#6C63FF"/>
<path opacity="0.1" d="M296.5 297.464H258.319C256.116 297.464 254.331 299.25 254.331 301.454V307.435C254.331 309.639 256.116 311.425 258.319 311.425H296.5C298.703 311.425 300.488 309.639 300.488 307.435V301.454C300.488 299.25 298.703 297.464 296.5 297.464Z" fill="#6C63FF"/>
<path opacity="0.1" d="M344.804 311.425H306.623C304.42 311.425 302.635 313.211 302.635 315.414V321.396C302.635 323.599 304.42 325.385 306.623 325.385H344.804C347.007 325.385 348.792 323.599 348.792 321.396V315.414C348.792 313.211 347.007 311.425 344.804 311.425Z" fill="#6C63FF"/>
<path opacity="0.1" d="M393.108 325.385H354.927C352.724 325.385 350.939 327.171 350.939 329.375V335.356C350.939 337.56 352.724 339.346 354.927 339.346H393.108C395.311 339.346 397.096 337.56 397.096 335.356V329.375C397.096 327.171 395.311 325.385 393.108 325.385Z" fill="#6C63FF"/>
<path opacity="0.1" d="M146.221 269.544H108.04C105.837 269.544 104.052 271.33 104.052 273.533V279.515C104.052 281.718 105.837 283.504 108.04 283.504H146.221C148.424 283.504 150.209 281.718 150.209 279.515V273.533C150.209 271.33 148.424 269.544 146.221 269.544Z" fill="#6C63FF"/>
<path opacity="0.1" d="M194.525 283.504H156.344C154.141 283.504 152.356 285.29 152.356 287.493V293.475C152.356 295.678 154.141 297.464 156.344 297.464H194.525C196.728 297.464 198.513 295.678 198.513 293.475V287.493C198.513 285.29 196.728 283.504 194.525 283.504Z" fill="#6C63FF"/>
<path opacity="0.1" d="M242.829 297.464H204.648C202.445 297.464 200.66 299.25 200.66 301.454V307.435C200.66 309.639 202.445 311.425 204.648 311.425H242.829C245.032 311.425 246.817 309.639 246.817 307.435V301.454C246.817 299.25 245.032 297.464 242.829 297.464Z" fill="#6C63FF"/>
<path opacity="0.1" d="M146.221 248.603H108.04C105.837 248.603 104.052 250.389 104.052 252.592V258.574C104.052 260.777 105.837 262.563 108.04 262.563H146.221C148.424 262.563 150.209 260.777 150.209 258.574V252.592C150.209 250.389 148.424 248.603 146.221 248.603Z" fill="#6C63FF"/>
<path opacity="0.1" d="M194.525 262.563H156.344C154.141 262.563 152.356 264.349 152.356 266.553V272.534C152.356 274.738 154.141 276.524 156.344 276.524H194.525C196.728 276.524 198.513 274.738 198.513 272.534V266.553C198.513 264.349 196.728 262.563 194.525 262.563Z" fill="#6C63FF"/>
<path opacity="0.1" d="M242.829 276.524H204.648C202.445 276.524 200.66 278.31 200.66 280.513V286.495C200.66 288.698 202.445 290.484 204.648 290.484H242.829C245.032 290.484 246.817 288.698 246.817 286.495V280.513C246.817 278.31 245.032 276.524 242.829 276.524Z" fill="#6C63FF"/>
<path opacity="0.1" d="M296.5 269.544H258.319C256.116 269.544 254.331 271.33 254.331 273.533V279.515C254.331 281.718 256.116 283.504 258.319 283.504H296.5C298.703 283.504 300.488 281.718 300.488 279.515V273.533C300.488 271.33 298.703 269.544 296.5 269.544Z" fill="#6C63FF"/>
<path opacity="0.1" d="M344.804 283.504H306.623C304.42 283.504 302.635 285.29 302.635 287.493V293.475C302.635 295.678 304.42 297.464 306.623 297.464H344.804C347.007 297.464 348.792 295.678 348.792 293.475V287.493C348.792 285.29 347.007 283.504 344.804 283.504Z" fill="#6C63FF"/>
<path opacity="0.1" d="M393.108 297.464H354.927C352.724 297.464 350.939 299.25 350.939 301.454V307.435C350.939 309.639 352.724 311.425 354.927 311.425H393.108C395.311 311.425 397.096 309.639 397.096 307.435V301.454C397.096 299.25 395.311 297.464 393.108 297.464Z" fill="#6C63FF"/>
<path opacity="0.1" d="M296.5 248.603H258.319C256.116 248.603 254.331 250.389 254.331 252.592V258.574C254.331 260.777 256.116 262.563 258.319 262.563H296.5C298.703 262.563 300.488 260.777 300.488 258.574V252.592C300.488 250.389 298.703 248.603 296.5 248.603Z" fill="#6C63FF"/>
<path opacity="0.1" d="M344.804 262.563H306.623C304.42 262.563 302.635 264.349 302.635 266.553V272.534C302.635 274.738 304.42 276.524 306.623 276.524H344.804C347.007 276.524 348.792 274.738 348.792 272.534V266.553C348.792 264.349 347.007 262.563 344.804 262.563Z" fill="#6C63FF"/>
<path opacity="0.1" d="M393.108 276.524H354.927C352.724 276.524 350.939 278.31 350.939 280.513V286.495C350.939 288.698 352.724 290.484 354.927 290.484H393.108C395.311 290.484 397.096 288.698 397.096 286.495V280.513C397.096 278.31 395.311 276.524 393.108 276.524Z" fill="#6C63FF"/>
<path opacity="0.1" d="M258.893 407C388.872 407 494.241 398.346 494.241 387.67C494.241 376.995 388.872 368.34 258.893 368.34C128.914 368.34 23.5455 376.995 23.5455 387.67C23.5455 398.346 128.914 407 258.893 407Z" fill="#6C63FF"/>
<path d="M45.4325 100.3C67.6255 109.922 80.3777 129.832 80.3777 129.832C80.3777 129.832 57.1436 134.127 34.9452 124.511C12.7469 114.894 0 94.9792 0 94.9792C0 94.9792 23.2342 90.6783 45.4325 100.3Z" fill="#6C63FF"/>
<path d="M113.541 63.3589C120.406 52.0831 132.095 46.7137 132.095 46.7137C132.095 46.7137 132.632 59.5681 125.789 70.8116C118.946 82.0551 107.229 87.4191 107.229 87.4191C107.229 87.4191 106.671 74.5702 113.541 63.3589Z" fill="#6C63FF"/>
<path d="M63.0796 75.4238C67.9905 92.9603 81.5263 104.504 81.5263 104.504C81.5263 104.504 87.1027 87.607 82.1918 70.0652C77.2809 52.5234 63.7397 40.9846 63.7397 40.9846C63.7397 40.9846 58.1633 57.882 63.0796 75.4238Z" fill="#46455B"/>
<path d="M451.191 74.6346H67.6684C65.5313 74.6346 63.7988 76.3678 63.7988 78.5059V266.746C63.7988 268.884 65.5313 270.617 67.6684 270.617H451.191C453.328 270.617 455.061 268.884 455.061 266.746V78.5059C455.061 76.3678 453.328 74.6346 451.191 74.6346Z" fill="#3F3D56"/>
<path opacity="0.1" d="M63.7988 258.805H455.061V266.746C455.061 267.773 454.653 268.757 453.927 269.483C453.201 270.21 452.217 270.617 451.191 270.617H67.6684C66.6421 270.617 65.6579 270.21 64.9322 269.483C64.2065 268.757 63.7988 267.773 63.7988 266.746V258.805Z" fill="black"/>
<path d="M129.546 244.307H103.247C102.506 244.307 101.905 244.908 101.905 245.65V257.462C101.905 258.204 102.506 258.805 103.247 258.805H129.546C130.287 258.805 130.888 258.204 130.888 257.462V245.65C130.888 244.908 130.287 244.307 129.546 244.307Z" fill="#6C63FF"/>
<path d="M157.723 256.657H140.012C139.419 256.657 138.938 257.138 138.938 257.731C138.938 258.324 139.419 258.805 140.012 258.805H157.723C158.316 258.805 158.796 258.324 158.796 257.731C158.796 257.138 158.316 256.657 157.723 256.657Z" fill="#6C63FF"/>
<path d="M121.307 112.961C135.471 115.576 149.919 112.961 164.024 111.189L206.891 105.82C208.625 105.6 211.147 104.564 212.167 106.684C212.741 107.871 212.355 110.443 212.398 111.807C212.51 115.565 212.5 119.324 212.398 123.083C212.205 130.267 211.679 137.435 211.008 144.587C209.703 158.585 207.857 172.508 206.934 186.56C206.462 193.712 206.226 200.885 206.435 208.037C206.483 209.745 206.553 211.452 206.655 213.154C206.768 215.06 207.621 217.89 205.544 219.162C204.358 219.893 202.023 219.855 200.665 220.07C198.518 220.408 196.372 220.677 194.182 220.897C179.75 222.341 165.13 221.74 150.644 221.654L106.902 221.428L96.2322 221.369C95.2661 221.369 91.7828 221.949 91.1871 220.8C90.9348 220.312 91.6057 218.024 91.7238 217.412C91.8884 216.403 92.0673 215.395 92.2605 214.389C93.5057 207.328 94.9763 200.311 96.4576 193.298C99.6403 178.264 102.898 163.154 104.208 147.798C104.857 140.093 104.428 132.318 105.222 124.629C105.592 121.058 106.033 113.09 110.782 112.773C114.808 112.505 118.951 112.773 122.987 112.773C123.201 112.773 123.405 112.688 123.556 112.537C123.707 112.386 123.792 112.182 123.792 111.968C123.792 111.754 123.707 111.549 123.556 111.398C123.405 111.247 123.201 111.163 122.987 111.163C119.177 111.163 115.361 111.061 111.55 111.136C109.017 111.184 107.256 111.785 106.049 114.116C102.963 120.097 103.279 128.076 103.183 134.605C102.952 150.236 100.553 165.533 97.429 180.82C95.8565 188.514 94.1605 196.181 92.5987 203.881C91.8634 207.559 91.1603 211.248 90.5162 214.948C90.2157 216.709 88.6968 220.591 90.0332 222.207C91.3696 223.823 95.4808 222.953 97.3217 222.964L110.128 223.039L134.666 223.179C150.52 223.27 166.429 223.716 182.278 223.249C189.845 223.023 197.842 222.712 205.211 220.902C207.406 220.365 208.464 219.356 208.55 217.015C208.678 213.385 208.088 209.643 208.013 205.997C207.476 174.801 214.802 144.039 214.051 112.832C214.003 110.711 214.802 105.364 212.484 104.08C211.442 103.5 210.09 103.817 208.995 103.946C206.902 104.188 204.814 104.483 202.721 104.73L175.537 108.123C166.847 109.197 158.163 110.357 149.458 111.345C140.242 112.419 130.936 113.058 121.753 111.345C120.738 111.157 120.304 112.709 121.323 112.897L121.307 112.961Z" fill="#6C63FF"/>
<path d="M104.218 131.942L211.464 126.68C212.5 126.626 212.505 125.016 211.464 125.069L104.218 130.331C103.188 130.38 103.183 131.99 104.218 131.942Z" fill="#6C63FF"/>
<path d="M137.258 118.664C136.958 118.982 136.741 119.368 136.624 119.789C136.507 120.211 136.495 120.654 136.589 121.081C136.682 121.508 136.879 121.906 137.161 122.24C137.443 122.574 137.803 122.833 138.208 122.997C139.652 123.657 141.348 123.104 142.781 122.744C144.928 122.207 147.075 121.73 149.281 121.338C154.082 120.487 158.945 120.035 163.82 119.984C166.042 119.958 168.248 120.06 170.47 120.156C172.08 120.221 173.814 120.35 175.177 119.351C176.733 118.213 177.238 115.99 175.714 114.604C173.567 112.645 168.94 113.783 166.461 113.987C157.463 114.735 148.524 116.069 139.7 117.982C138.691 118.196 139.115 119.754 140.13 119.533C145.951 118.277 151.817 117.268 157.728 116.505C160.634 116.147 163.545 115.845 166.461 115.598C167.835 115.485 169.209 115.383 170.583 115.302C171.119 115.27 171.688 115.211 172.236 115.227C173.937 115.265 174.136 114.959 173.116 117.015C172.209 118.835 172.499 118.626 170.926 118.567C170.261 118.567 169.595 118.492 168.93 118.46C167.566 118.402 166.203 118.372 164.84 118.368C161.938 118.368 159.043 118.508 156.156 118.787C153.708 119.023 151.266 119.356 148.846 119.786C147.332 120.054 145.83 120.366 144.332 120.709C143.672 120.865 143.006 121.026 142.346 121.193C142.03 121.278 141.708 121.354 141.391 121.434C140.217 121.842 139.217 121.305 138.391 119.823C139.11 119.077 137.977 117.933 137.253 118.685L137.258 118.664Z" fill="#6C63FF"/>
<path d="M156.698 141.58C148.932 141.279 140.543 143.379 135.428 149.634C131.424 154.526 129.143 162.918 133.383 168.427C137.94 174.333 147.933 173.292 153.961 170.774C160.337 168.089 167.314 162.553 169.23 155.627C171.618 146.976 163.863 140.436 155.786 140.34C154.75 140.34 154.75 141.951 155.786 141.951C160.391 142.004 164.91 143.98 167.056 148.27C169.305 152.791 167.368 157.538 164.373 161.157C159.575 166.918 152.072 171.262 144.429 171.139C139.84 171.069 134.768 169.496 133.346 164.652C132.176 160.727 133.067 156.437 135.106 152.958C139.518 145.441 148.497 142.896 156.73 143.218C157.766 143.255 157.766 141.645 156.73 141.607L156.698 141.58Z" fill="#6C63FF"/>
<path d="M148.985 153.511C148.654 153.388 148.298 153.351 147.948 153.404C147.599 153.456 147.269 153.596 146.988 153.81C146.707 154.024 146.485 154.306 146.343 154.63C146.2 154.953 146.142 155.307 146.173 155.659C146.334 157.753 148.642 158.343 150.376 158.22C151.873 158.091 153.623 157.538 153.097 155.664C153 155.332 152.833 155.025 152.607 154.764C152.381 154.503 152.101 154.293 151.787 154.15C151.307 153.959 150.786 153.895 150.274 153.962C150.075 153.962 148.256 154.628 149.028 153.828L147.762 153.661C147.902 153.8 148.01 153.968 148.077 154.154C148.144 154.34 148.168 154.539 148.148 154.735C148.151 154.876 148.189 155.013 148.261 155.134C148.332 155.254 148.434 155.355 148.555 155.425C148.677 155.494 148.815 155.531 148.955 155.532C149.095 155.533 149.233 155.497 149.356 155.428C149.54 155.351 149.742 155.327 149.939 155.358C150.136 155.389 150.321 155.475 150.472 155.606C150.623 155.736 150.735 155.906 150.794 156.097C150.854 156.287 150.86 156.491 150.81 156.684C150.767 156.87 150.791 157.066 150.877 157.236C150.964 157.406 151.108 157.54 151.284 157.615C151.459 157.689 151.656 157.699 151.838 157.643C152.021 157.586 152.177 157.468 152.281 157.307C152.818 156.341 153.467 154.418 152.662 153.409C152.125 152.727 151.089 152.931 150.445 153.328C150.048 153.61 149.678 153.928 149.34 154.279C148.69 154.853 148.266 155.122 148.508 154.021C148.91 152.018 150.821 150.424 152.565 149.624L151.385 148.716C150.765 151.043 149.659 153.212 148.137 155.079L149.511 155.648C149.472 154.911 149.662 154.179 150.054 153.554C150.446 152.928 151.021 152.439 151.701 152.152H150.912L151.331 152.84C151.175 153.855 152.726 154.29 152.882 153.264C153.086 151.938 152.249 150.214 150.698 150.864C148.846 151.637 147.885 153.758 147.923 155.648C147.923 156.292 148.835 156.792 149.302 156.223C151.009 154.148 152.255 151.734 152.957 149.14C152.994 148.986 152.986 148.825 152.933 148.676C152.881 148.526 152.786 148.396 152.66 148.3C152.534 148.203 152.383 148.146 152.225 148.134C152.067 148.122 151.91 148.157 151.771 148.233C150.163 148.96 148.804 150.144 147.864 151.637C147.209 152.711 146.388 154.386 147.053 155.621C147.162 155.819 147.31 155.993 147.486 156.133C147.663 156.273 147.866 156.377 148.083 156.439C148.3 156.5 148.527 156.518 148.751 156.491C148.975 156.464 149.192 156.393 149.388 156.282C149.884 155.987 150.338 155.626 150.735 155.208C150.934 155.03 151.154 154.724 151.417 154.671C151.653 154.51 151.642 154.601 151.379 154.955C151.376 155.512 151.214 156.056 150.912 156.523L152.383 157.141C152.515 156.639 152.5 156.11 152.338 155.618C152.177 155.125 151.876 154.689 151.472 154.364C151.069 154.039 150.58 153.837 150.064 153.784C149.548 153.731 149.028 153.828 148.567 154.064L149.78 154.762C149.805 154.079 149.591 153.408 149.173 152.867C149.11 152.762 149.024 152.673 148.922 152.607C148.82 152.54 148.704 152.497 148.583 152.481C148.462 152.465 148.338 152.476 148.222 152.514C148.106 152.552 148 152.616 147.912 152.7C147.096 153.554 146.941 155.03 147.966 155.82C148.733 156.405 149.109 155.82 149.952 155.686C152.812 155.315 151.143 156.604 150.134 156.647C149.683 156.695 149.227 156.662 148.787 156.55C147.667 156.171 147.597 155.682 148.578 155.084C149.538 155.476 149.952 153.919 149.007 153.532L148.985 153.511Z" fill="#6C63FF"/>
<path d="M147.692 156.453C148.352 158.601 145.626 159.31 144.332 160.051C143.424 160.56 142.633 161.253 142.008 162.086C140.656 163.901 140.151 166.21 139.706 168.384C139.502 169.399 141.053 169.829 141.262 168.814C141.508 167.216 141.964 165.658 142.62 164.18C143.586 162.258 144.971 161.613 146.774 160.625C148.578 159.637 149.882 158.107 149.243 156.024C148.942 155.036 147.386 155.46 147.692 156.453V156.453Z" fill="#6C63FF"/>
<path d="M150.376 155.374C149.992 155.427 149.641 155.622 149.393 155.92C149.145 156.218 149.017 156.598 149.034 156.985C149.034 157.624 149.458 158.032 149.748 158.542C150.436 159.586 150.96 160.728 151.304 161.93C151.562 163.085 151.814 165.152 151.213 166.226C150.102 168.218 148.095 167.837 146.382 167.837C144.772 167.837 143.527 168.373 143.581 166.129C143.613 164.867 144.493 163.589 145.191 162.596L143.72 162.403C144.031 164.042 144.194 165.706 144.209 167.375C144.209 168.121 145.352 168.535 145.706 167.777C146.569 165.962 147.254 164.066 147.751 162.118L146.168 161.903L146.447 165.984C146.451 166.158 146.512 166.326 146.62 166.463C146.727 166.6 146.876 166.699 147.044 166.745C147.212 166.791 147.39 166.781 147.552 166.717C147.715 166.654 147.852 166.54 147.944 166.392C148.132 166.185 148.27 165.937 148.347 165.667C148.4 165.415 147.907 163.713 147.708 164.32L149.286 164.534L149.399 160.658L147.789 160.872C148.129 161.966 148.231 163.119 148.089 164.255C147.987 165.152 149.495 165.356 149.699 164.47L150.708 159.262L149.238 159.45C149.587 160.17 149.684 160.987 149.511 161.769C149.393 162.8 151.003 162.789 151.122 161.769C151.258 160.7 151.087 159.614 150.628 158.639C150.546 158.504 150.427 158.397 150.286 158.329C150.144 158.261 149.985 158.235 149.829 158.256C149.674 158.276 149.527 158.342 149.408 158.444C149.288 158.546 149.201 158.681 149.157 158.832L148.143 164.04L149.726 164.255C149.887 162.975 149.764 161.675 149.367 160.448C149.313 160.263 149.195 160.104 149.033 159.999C148.872 159.893 148.678 159.849 148.488 159.875C148.297 159.9 148.121 159.993 147.993 160.137C147.865 160.28 147.792 160.465 147.789 160.658L147.676 164.534C147.676 165.474 148.98 165.608 149.259 164.749L149.345 164.486C149.382 164.349 149.383 164.204 149.347 164.067C149.311 163.929 149.24 163.804 149.141 163.702C147.472 161.887 147.134 164.776 146.554 165.576L148.057 165.984L147.778 161.903C147.719 161.033 146.431 160.765 146.195 161.689C145.741 163.505 145.112 165.272 144.316 166.967L145.819 167.375C145.802 165.562 145.622 163.754 145.282 161.973C145.143 161.232 144.171 161.264 143.812 161.78C142.738 163.326 140.881 166.704 142.314 168.556C143.565 170.167 147.499 169.544 149.179 169.442C151.83 169.292 152.791 167.611 153.081 165.109C153.219 163.911 153.151 162.698 152.882 161.522C152.737 160.889 151.272 156.872 150.832 156.953C151.851 156.765 151.417 155.208 150.402 155.396L150.376 155.374Z" fill="#6C63FF"/>
<path d="M147.257 158.993L142.862 164.797L144.252 165.608L147.472 160.948L146.001 160.325L144.397 166.451C144.353 166.637 144.377 166.832 144.464 167.003C144.55 167.173 144.694 167.307 144.87 167.381C145.046 167.456 145.242 167.466 145.425 167.41C145.607 167.353 145.764 167.235 145.867 167.074C146.597 165.863 147.417 164.709 148.32 163.621L146.978 162.838C146.618 164.225 145.923 165.502 144.955 166.559L146.302 167.342C146.384 166.601 146.582 165.876 146.887 165.195C147.3 164.266 145.991 163.444 145.497 164.379C145.043 165.23 144.524 166.044 143.946 166.816L145.416 167.01L145.744 165.479L144.273 165.286L144.509 166.628C144.548 166.763 144.621 166.886 144.722 166.984C144.822 167.083 144.946 167.153 145.082 167.189C145.218 167.224 145.361 167.224 145.496 167.188C145.632 167.152 145.756 167.081 145.856 166.983C147.218 165.573 148.309 163.926 149.077 162.123H147.692C148.056 162.795 148.311 163.52 148.449 164.271C148.642 165.238 149.925 164.878 150.027 164.056C150.257 162.258 150.375 160.447 150.381 158.633H148.771V162.011C148.771 162.886 150.204 163.144 150.354 162.225C150.46 161.411 150.729 160.626 151.143 159.917H149.731C150.072 160.466 150.257 161.096 150.268 161.742C150.268 161.956 150.353 162.161 150.504 162.312C150.655 162.463 150.86 162.548 151.073 162.548C151.287 162.548 151.492 162.463 151.642 162.312C151.793 162.161 151.878 161.956 151.878 161.742L152.082 160.668H150.531C150.687 161.619 151.277 166.972 149.179 166.344C148.824 166.258 148.722 166.279 148.873 166.403L149.35 165.383L150.472 163.004L148.969 162.596C149.066 163.702 149.168 165.281 148.502 166.226C147.966 166.993 146.313 167.3 145.47 166.848C144.914 166.452 144.438 165.952 144.069 165.377L142.969 166.451C143.86 167.101 145.304 168.696 146.452 168.787C147.327 168.857 148.062 168.132 148.637 167.552C149.517 166.641 150.204 165.561 150.655 164.377C151.107 163.193 151.313 161.929 151.261 160.663C151.261 160.449 151.176 160.244 151.025 160.093C150.874 159.942 150.67 159.858 150.456 159.858C150.242 159.858 150.038 159.942 149.887 160.093C149.736 160.244 149.651 160.449 149.651 160.663V162.499C149.651 162.713 149.736 162.918 149.887 163.069C150.038 163.22 150.242 163.305 150.456 163.305C150.67 163.305 150.874 163.22 151.025 163.069C151.176 162.918 151.261 162.713 151.261 162.499V157.994C151.261 157.781 151.176 157.576 151.025 157.425C150.874 157.274 150.67 157.189 150.456 157.189C150.242 157.189 150.038 157.274 149.887 157.425C149.736 157.576 149.651 157.781 149.651 157.994C149.648 159.074 149.555 160.152 149.372 161.216L150.955 161.431C150.829 160.148 150.77 158.859 150.778 157.57C150.776 157.377 150.704 157.192 150.576 157.047C150.448 156.902 150.273 156.809 150.082 156.783C149.89 156.757 149.696 156.8 149.535 156.905C149.373 157.01 149.254 157.17 149.2 157.355C148.959 158.381 148.663 159.39 148.379 160.394L149.85 160.201L149.737 159.772C149.662 158.746 148.052 158.741 148.127 159.772C148.144 160.206 148.258 160.632 148.459 161.017C148.771 161.672 149.742 161.442 149.93 160.824C150.236 159.815 150.51 158.805 150.751 157.785L149.168 157.57C149.16 158.859 149.219 160.148 149.345 161.431C149.426 162.258 150.757 162.612 150.923 161.646C151.137 160.433 151.25 159.204 151.261 157.973H149.651V162.478H151.261V160.641H149.651C149.746 162.667 149.042 164.649 147.692 166.161C147.483 166.399 147.257 166.622 147.016 166.827C146.635 167.192 146.286 167.138 145.98 166.661C145.218 166.344 144.429 165.528 143.763 165.05C143.098 164.572 142.185 165.517 142.658 166.15C143.892 167.794 145.733 169.624 148.025 168.835C150.435 167.981 150.762 164.717 150.579 162.569C150.52 161.855 149.452 161.372 149.082 162.166C148.545 163.299 148.009 164.427 147.472 165.565C147.284 165.963 146.935 166.51 146.989 166.983C147.166 168.191 148.631 167.992 149.533 167.922C153.027 167.659 152.474 162.703 152.072 160.212C151.937 159.385 150.735 159.514 150.52 160.212C150.35 160.702 150.261 161.218 150.257 161.737H151.868C151.809 160.814 151.551 159.914 151.111 159.1C151.039 158.98 150.937 158.881 150.815 158.812C150.693 158.743 150.556 158.707 150.416 158.707C150.276 158.707 150.138 158.743 150.016 158.812C149.895 158.881 149.793 158.98 149.721 159.1C149.241 159.929 148.917 160.839 148.765 161.785L150.376 162V158.623C150.376 158.409 150.291 158.204 150.14 158.053C149.989 157.902 149.784 157.817 149.57 157.817C149.357 157.817 149.152 157.902 149.001 158.053C148.85 158.204 148.765 158.409 148.765 158.623C148.76 160.436 148.642 162.247 148.411 164.046L149.994 163.831C149.812 162.953 149.503 162.107 149.077 161.318C149.005 161.198 148.903 161.099 148.781 161.03C148.659 160.96 148.522 160.924 148.382 160.924C148.242 160.924 148.104 160.96 147.982 161.03C147.86 161.099 147.759 161.198 147.687 161.318C146.987 163 145.98 164.536 144.719 165.85L146.066 166.204L145.83 164.862C145.706 164.148 144.697 164.126 144.359 164.669C144.092 165.072 143.911 165.526 143.827 166.003C143.743 166.48 143.758 166.968 143.871 167.439C144.005 168.202 144.971 168.121 145.341 167.632C145.92 166.862 146.438 166.049 146.892 165.2L145.502 164.384C145.131 165.186 144.878 166.038 144.751 166.913C144.654 167.622 145.497 168.363 146.098 167.697C147.252 166.434 148.087 164.913 148.535 163.262C148.733 162.531 147.724 161.839 147.187 162.478C146.2 163.662 145.303 164.918 144.504 166.236L145.974 166.859L147.611 160.754C147.655 160.568 147.631 160.373 147.544 160.203C147.458 160.033 147.314 159.898 147.138 159.824C146.962 159.75 146.766 159.74 146.583 159.796C146.401 159.852 146.244 159.971 146.141 160.131L142.921 164.797C142.319 165.662 143.699 166.408 144.311 165.608L148.69 159.809C149.313 158.982 147.917 158.198 147.3 158.993H147.257Z" fill="#6C63FF"/>
<path d="M215.731 178.371C222.171 174.43 227.291 168.551 232.981 163.632C239.153 158.3 245.631 153.334 252.302 148.63C265.258 139.502 278.864 131.335 292.459 123.19C292.635 123.078 292.761 122.903 292.81 122.7C292.86 122.498 292.829 122.284 292.724 122.104C292.619 121.923 292.448 121.791 292.248 121.734C292.047 121.678 291.832 121.701 291.648 121.799C278.053 129.945 264.443 138.095 251.486 147.239C245.373 151.535 239.405 156.088 233.684 160.921C227.458 166.183 221.914 172.733 214.899 176.981C214.013 177.517 214.824 178.913 215.709 178.371H215.731Z" fill="#6C63FF"/>
<path d="M313.246 98.1793C306.268 98.8881 298.754 100.665 294.461 106.77C290.752 112.022 290.833 121.182 294.316 126.573C298.271 132.699 306.354 132.919 312.634 130.938C318.913 128.957 325.413 125.483 325.354 117.976C325.322 113.949 323.867 109.756 322.262 106.105C320.878 102.953 318.425 100.198 314.711 100.547C313.686 100.644 313.675 102.255 314.711 102.158C319.686 101.696 321.286 107.608 322.466 111.34C323.54 114.824 324.533 118.948 322.847 122.411C321.162 125.875 317.099 127.641 313.627 128.908C309.87 130.272 305.742 131.104 301.819 129.982C294.047 127.808 291.901 117.955 294.139 110.964C296.715 102.91 305.839 100.542 313.272 99.7901C314.292 99.6881 314.303 98.0773 313.272 98.1793H313.246Z" fill="#6C63FF"/>
<path d="M323.98 160.464C317.003 161.173 309.489 162.95 305.195 169.055C301.486 174.307 301.567 183.467 305.05 188.858C309.006 194.984 317.088 195.204 323.368 193.223C329.648 191.242 336.147 187.768 336.088 180.261C336.056 176.234 334.601 172.041 332.997 168.39C331.612 165.238 329.159 162.483 325.445 162.832C324.42 162.929 324.409 164.54 325.445 164.443C330.42 163.981 332.02 169.893 333.201 173.625C334.274 177.109 335.267 181.233 333.582 184.696C331.896 188.16 327.833 189.926 324.361 191.193C320.604 192.557 316.477 193.389 312.553 192.267C304.782 190.093 302.635 180.24 304.873 173.249C307.449 165.195 316.573 162.827 324.007 162.075C325.026 161.973 325.037 160.362 324.007 160.464H323.98Z" fill="#6C63FF"/>
<path d="M302.721 113.863L307.803 119.662C307.904 119.759 308.028 119.829 308.163 119.864C308.299 119.899 308.441 119.898 308.576 119.862C308.711 119.826 308.834 119.755 308.934 119.657C309.034 119.559 309.107 119.437 309.145 119.303C310.219 116.478 310.015 113.552 310.267 110.583C310.545 107.514 311.315 104.51 312.548 101.686C315.024 95.9577 319.222 91.1438 324.559 87.9131C325.445 87.3761 324.635 85.9801 323.749 86.5224C318.487 89.6926 314.265 94.3322 311.603 99.8707C310.3 102.566 309.396 105.436 308.92 108.392C308.383 111.877 308.871 115.528 307.583 118.873L308.93 118.513L303.875 112.725C303.188 111.946 302.055 113.09 302.737 113.863H302.721Z" fill="#6C63FF"/>
<path d="M218.323 184.648C246.007 183.803 273.697 183.624 301.395 184.111C302.431 184.111 302.431 182.5 301.395 182.5C273.704 182.006 246.014 182.185 218.323 183.037C217.287 183.07 217.282 184.68 218.323 184.648Z" fill="#6C63FF"/>
<path d="M307.181 168.765C316.644 172.481 325.748 177.057 334.376 182.436C335.256 182.973 336.067 181.593 335.186 181.045C326.444 175.6 317.221 170.97 307.632 167.214C306.671 166.832 306.252 168.39 307.208 168.765H307.181Z" fill="#6C63FF"/>
<path d="M324.366 161.468C314.77 172.661 309.211 186.754 308.582 201.486C308.539 202.523 310.149 202.523 310.192 201.486C310.801 187.177 316.193 173.486 325.504 162.607C326.175 161.823 325.043 160.679 324.366 161.468Z" fill="#6C63FF"/>
<path d="M109.709 178.801L169.697 178.017L176.594 177.926C177.834 177.926 179.073 177.883 180.313 177.877C182.058 177.877 183.233 179.327 183.201 181.099C183.12 184.857 180.759 184.723 177.667 184.857L170.212 185.196L139.856 186.533C134.419 186.774 128.977 187.07 123.54 187.258C118.634 187.408 109.306 185.808 111.485 178.667C111.786 177.673 110.235 177.249 109.929 178.237C108.856 181.749 110.756 185.314 113.815 187.156C118.157 189.765 123.878 188.879 128.671 188.664L165.94 186.973L174.989 186.57C177.308 186.463 180.533 186.935 182.664 185.856C185.165 184.594 185.605 179.585 184.027 177.475C183.217 176.401 182.079 176.304 180.807 176.256C177.469 176.127 174.071 176.347 170.728 176.39L152.147 176.637L109.687 177.174C108.652 177.174 108.652 178.785 109.687 178.785L109.709 178.801Z" fill="#6C63FF"/>
<path d="M352.077 376.126C350.724 376.974 349.178 377.452 347.783 378.199C346.387 378.945 345.03 380.067 344.632 381.613C344.484 382.094 344.509 382.61 344.702 383.074C345.049 383.634 345.581 384.055 346.205 384.266C349.04 385.526 352.102 386.193 355.203 386.228C358.305 386.263 361.381 385.665 364.244 384.47C365.251 383.986 366.291 383.573 367.357 383.235C368.669 382.967 370.005 382.831 371.345 382.827C372.752 382.745 374.153 382.565 375.536 382.29C376.232 382.213 376.891 381.939 377.436 381.501C377.934 380.927 378.233 380.207 378.29 379.45C378.925 375.266 377.967 370.997 375.606 367.487C375.309 366.995 374.91 366.572 374.436 366.246C373.858 365.948 373.223 365.777 372.574 365.747C369.89 365.419 367.078 364.818 364.367 364.754C362.424 364.711 361.448 365.634 360.074 366.971C357.234 369.812 355.576 373.941 352.077 376.126Z" fill="#323444"/>
<path d="M391.627 375.729C391.627 378.36 391.943 381.146 393.537 383.246C394.266 384.154 395.149 384.926 396.146 385.528C399.516 387.676 403.982 388.465 407.535 386.645C408.109 386.387 408.6 385.974 408.952 385.453C409.489 384.518 409.204 383.353 408.903 382.322L403.762 364.496C400.44 365.006 395.556 365.366 392.604 367.052C390.462 368.271 391.627 373.377 391.627 375.729Z" fill="#323444"/>
<path d="M349.06 265.962C348.749 266.945 347.622 267.401 347.005 268.228C346.28 269.2 346.355 270.548 346.618 271.729C346.943 273.471 347.761 275.083 348.974 276.373C349.59 277.013 350.35 277.495 351.19 277.781C352.031 278.067 352.927 278.148 353.805 278.016C355.533 277.689 357.025 276.159 357.084 274.403C357.053 273.604 356.882 272.817 356.58 272.078L352.919 261.489C352.904 261.415 352.874 261.344 352.829 261.282C352.785 261.22 352.728 261.168 352.662 261.13C352.524 261.099 352.379 261.124 352.259 261.2C351.395 261.608 349.661 262.037 349.157 262.934C348.652 263.831 349.425 264.99 349.06 265.962Z" fill="#FBB3B2"/>
<path d="M347.348 265.431C348.685 265.221 349.855 264.437 351.105 263.922C352.356 263.406 353.923 263.208 354.975 264.067C355.275 264.314 355.565 264.652 355.957 264.647C355.424 262.021 354.618 259.459 353.553 257.001C353.515 256.883 353.442 256.78 353.343 256.705C353.197 256.646 353.033 256.646 352.887 256.705L349.275 257.65C347.939 257.999 347.783 257.892 347.885 259.207C347.912 259.793 348.212 265.431 347.348 265.431Z" fill="#323444"/>
<path d="M346.951 188.97C346.414 189.797 346.414 190.828 346.414 191.8C346.414 196.552 346.463 201.331 347.166 206.034C347.332 207.162 347.541 208.29 347.649 209.428C347.77 211.012 347.796 212.603 347.724 214.191L347.187 234.863C347.123 237.392 346.994 240.109 345.432 242.095C344.959 242.761 344.736 243.574 344.804 244.388C345.212 249.575 346.071 254.719 346.924 259.846C348.298 259.226 349.799 258.941 351.305 259.013C352.811 259.084 354.278 259.512 355.587 260.26C358.295 251.742 359.792 242.885 360.036 233.95C360.159 229.552 359.972 225.128 360.648 220.784C361.78 213.471 361.319 205.97 360.487 198.614C360.224 196.284 359.666 193.883 358.174 192.079C356.761 190.501 354.88 189.417 352.807 188.987C350.821 188.466 349.044 189.003 346.951 188.97Z" fill="#5B5583"/>
<path opacity="0.1" d="M346.951 188.97C346.414 189.797 346.414 190.828 346.414 191.8C346.414 196.552 346.463 201.331 347.166 206.034C347.332 207.162 347.541 208.29 347.649 209.428C347.77 211.012 347.796 212.603 347.724 214.191L347.187 234.863C347.123 237.392 346.994 240.109 345.432 242.095C344.959 242.761 344.736 243.574 344.804 244.388C345.212 249.575 346.071 254.719 346.924 259.846C348.298 259.226 349.799 258.941 351.305 259.013C352.811 259.084 354.278 259.512 355.587 260.26C358.295 251.742 359.792 242.885 360.036 233.95C360.159 229.552 359.972 225.128 360.648 220.784C361.78 213.471 361.319 205.97 360.487 198.614C360.224 196.284 359.666 193.883 358.174 192.079C356.761 190.501 354.88 189.417 352.807 188.987C350.821 188.466 349.044 189.003 346.951 188.97Z" fill="black"/>
<path d="M353.51 248.92C349.91 267.374 351.875 286.482 359.156 303.816C359.785 305.1 360.226 306.467 360.465 307.876C360.761 310.507 359.548 313.036 358.855 315.581C357.245 321.369 358.174 327.533 359.204 333.455C359.634 335.925 360.075 338.394 360.53 340.86C360.975 343.265 361.405 345.88 360.288 348.06C361.249 352.066 361.818 356.034 362.779 360.039C362.881 360.356 362.912 360.692 362.87 361.022C362.676 361.546 362.335 362.003 361.888 362.337C361.172 363.064 360.657 363.964 360.394 364.95C360.132 365.936 360.13 366.973 360.39 367.959C362.843 366.198 366.262 366.816 369.064 367.959C371.865 369.103 374.624 370.644 377.651 370.644C377.211 367.089 376.787 363.358 378.096 360.023C378.858 358.09 380.2 356.265 380.163 354.197C380.125 352.345 378.993 350.691 378.719 348.86C378.617 347.721 378.661 346.574 378.848 345.445C379.567 338.873 378.751 332.237 377.935 325.675C377.843 324.381 377.538 323.111 377.034 321.917C376.653 321.143 376.084 320.402 376.094 319.538C376.094 318.534 376.905 317.718 377.205 316.762C377.742 315.001 376.755 312.606 378.241 311.516C382.159 308.638 380.656 301.765 380.571 296.906C380.503 292.714 380.324 288.526 380.034 284.342C382.501 291.281 383.509 298.655 382.997 306.002C382.825 308.407 382.508 310.936 383.447 313.159C384.167 314.867 385.594 316.273 385.981 318.083C386.222 319.2 386.05 320.354 386.104 321.492C386.158 322.631 386.544 323.871 387.526 324.446C387.601 329.622 388.063 335.158 388.144 340.334C388.091 342.98 388.307 345.624 388.788 348.227C389.029 349.054 389.162 349.91 389.185 350.772C389.064 351.852 388.778 352.908 388.337 353.902C387.401 356.673 387.157 359.631 387.625 362.517C388.092 365.404 389.258 368.133 391.02 370.467C392.287 368.217 394.928 367.025 397.504 366.837C400.08 366.649 402.624 367.299 405.12 367.954C404.738 364.817 405.362 361.639 406.902 358.88C407.314 358.258 407.631 357.577 407.841 356.861C408.131 355.497 407.454 354.138 407.089 352.791C406.494 350.643 406.703 348.329 406.843 346.084C407.311 338.567 406.978 331.022 405.85 323.576C405.675 322.109 405.331 320.668 404.825 319.28C404.631 318.786 404.395 318.314 404.234 317.814C403.981 316.919 403.837 315.996 403.805 315.065L403.188 306.474C402.753 300.455 404.728 294.511 406.107 288.637C406.724 286.006 407.395 283.38 407.809 280.707C408.372 277.066 408.463 273.345 409.29 269.753C410.031 266.531 411.367 263.39 411.646 260.088C412.075 254.971 409.95 250.026 407.889 245.333C407.03 243.4 403.783 243.593 401.696 243.25C386.888 240.817 371.291 240.801 357.326 246.283C355.881 246.882 354.581 247.781 353.51 248.92V248.92Z" fill="#3C354C"/>
<path d="M364.185 153.618L365.827 160.008C366.274 161.473 366.521 162.992 366.562 164.524C366.579 165.082 366.456 165.636 366.203 166.135C365.933 166.544 365.586 166.897 365.183 167.176C364.061 168.03 363.283 170.022 362 170.613C362.661 171.762 363.573 171.015 364.764 171.59C366.863 172.61 368.784 174.076 371.06 174.581C373.207 175.053 375.461 174.607 377.592 174.044C380.614 173.222 383.619 172.089 386.05 170.108C388.482 168.127 389.866 166.376 389.856 163.246C387.172 163.563 384.784 160.851 383.598 158.413C383.186 157.487 382.884 156.516 382.696 155.519L381.258 149.189C379.69 149.532 378.413 150.655 376.916 151.24C375.418 151.825 373.647 151.879 371.983 151.954C369.03 152.088 366.093 152.469 363.203 153.092C362.805 153.173 362.306 153.425 362.403 153.812" fill="#FBB3B2"/>
<path opacity="0.1" d="M364.185 153.618L365.827 160.008C366.274 161.473 366.521 162.992 366.562 164.524C366.579 165.082 366.456 165.636 366.203 166.135C365.933 166.544 365.586 166.897 365.183 167.176C364.061 168.03 363.283 170.022 362 170.613C362.661 171.762 363.573 171.015 364.764 171.59C366.863 172.61 368.784 174.076 371.06 174.581C373.207 175.053 375.461 174.607 377.592 174.044C380.614 173.222 383.619 172.089 386.05 170.108C388.482 168.127 389.866 166.376 389.856 163.246C387.172 163.563 384.784 160.851 383.598 158.413C383.186 157.487 382.884 156.516 382.696 155.519L381.258 149.189C379.69 149.532 378.413 150.655 376.916 151.24C375.418 151.825 373.647 151.879 371.983 151.954C369.03 152.088 366.093 152.469 363.203 153.092C362.805 153.173 362.306 153.425 362.403 153.812" fill="black"/>
<path d="M371.237 157.141C379.086 157.141 385.449 150.775 385.449 142.923C385.449 135.07 379.086 128.704 371.237 128.704C363.388 128.704 357.025 135.07 357.025 142.923C357.025 150.775 363.388 157.141 371.237 157.141Z" fill="#FBB3B2"/>
<path d="M375.15 166.36C375.91 164.718 377.007 163.254 378.37 162.064C380.372 160.309 383.109 158.886 383.582 156.266L387.918 161.318C388.154 161.552 388.337 161.834 388.455 162.145C388.51 162.436 388.501 162.736 388.431 163.024C388.361 163.312 388.23 163.582 388.047 163.815C386.974 165.528 385.283 166.752 383.683 167.992C380.018 170.897 376.508 173.994 373.169 177.271C373.022 177.441 372.825 177.562 372.606 177.614C372.398 177.62 372.194 177.562 372.021 177.448C369.14 175.935 366.591 173.861 364.523 171.348C364.367 171.16 364.174 170.945 363.922 170.962C363.77 170.989 363.629 171.062 363.519 171.171C362.076 172.352 360.498 173.764 358.646 173.582C361.045 171.858 362.403 168.98 362.907 166.065C363.007 165.067 363.212 164.082 363.519 163.128C363.678 162.65 363.952 162.219 364.318 161.872C364.683 161.526 365.127 161.275 365.612 161.141C364.442 162.929 365.242 165.463 366.815 166.908C368.343 168.205 370.174 169.094 372.139 169.49C373.964 169.834 374.5 167.767 375.15 166.36Z" fill="#323444"/>
<path d="M356.66 250.38C358.684 250.88 360.6 251.728 362.564 252.356C366.144 253.478 369.912 253.874 373.647 253.521C374.797 253.496 375.915 253.14 376.867 252.496C377.12 252.292 377.35 252.05 377.619 251.862C378.068 251.593 378.554 251.392 379.062 251.266C383.984 249.725 388.106 246.402 392.104 243.148C392.233 243.04 392.378 242.906 392.367 242.734C392.349 242.617 392.292 242.51 392.206 242.428L390.103 240.012C384.585 240.952 378.934 240.597 373.336 240.458C372.186 240.407 371.035 240.437 369.89 240.549C368.784 240.678 367.695 240.957 366.605 241.193C362.467 242.095 358.238 242.439 354.046 243.03C353.753 243.051 353.469 243.139 353.214 243.287C353.038 243.424 352.887 243.591 352.769 243.781L351.298 245.848C350.728 246.544 350.307 247.35 350.064 248.216C349.72 249.827 350.44 250.364 351.808 250.155C353.425 249.918 355.072 249.995 356.66 250.38Z" fill="#323444"/>
<path d="M373.11 174.811C371.468 173.128 369.607 171.674 367.577 170.489C366.757 169.968 365.847 169.604 364.893 169.415C364.414 169.32 363.919 169.332 363.444 169.449C362.97 169.566 362.526 169.785 362.145 170.092C361.668 170.516 361.367 171.106 360.905 171.552C360.325 172.04 359.659 172.417 358.941 172.664C356.498 173.708 354.182 175.028 352.039 176.599C350.871 177.417 349.818 178.389 348.91 179.488C346.479 182.602 346.114 186.839 346.178 190.791C346.226 193.54 348.862 195.58 350.676 197.637C352.377 199.66 353.917 201.815 355.281 204.08C356.258 205.626 357.277 207.302 357.154 209.143C357.052 210.652 356.172 212.07 356.311 213.573C356.36 214.11 356.531 214.604 356.58 215.125C356.676 216.199 356.252 217.273 356.145 218.346C356 219.866 356.494 221.375 356.521 222.905C356.501 223.953 356.368 224.995 356.123 226.014C355.093 230.922 353.799 235.856 354.062 240.866L351.089 241.403C351.371 241.679 351.583 242.017 351.71 242.391C351.836 242.765 351.873 243.163 351.817 243.554C351.761 243.944 351.614 244.316 351.388 244.639C351.162 244.962 350.863 245.228 350.515 245.414C355.157 246.965 360.176 246.181 365.097 246.176C369.171 246.176 373.228 246.713 377.297 246.638C381.365 246.563 385.562 245.827 388.916 243.523C389.829 242.901 390.666 242.17 391.627 241.628C392.914 240.961 394.3 240.508 395.733 240.286C398.386 239.78 401.083 239.539 403.783 239.566C405.104 239.566 406.542 239.62 407.594 238.825C408.753 237.945 409.048 236.35 409.204 234.906C409.36 233.381 409.456 231.85 409.483 230.32C409.528 229.128 409.465 227.935 409.295 226.755C409.134 225.892 408.925 225.038 408.667 224.199L406.644 217.068C405.807 214.126 406.971 210.899 407.218 207.849C407.277 207.13 407.288 206.292 406.735 205.83C406.537 205.664 406.263 205.551 406.198 205.293C406.17 205.171 406.166 205.044 406.188 204.92C406.21 204.797 406.258 204.679 406.327 204.574C407.401 202.426 409.011 200.531 410.481 198.592C412.951 195.192 415.244 191.667 417.351 188.031C416.692 180.422 413.489 173.256 408.259 167.692C407.186 166.526 405.957 165.41 404.454 164.883C403.472 164.583 402.454 164.419 401.427 164.395C397.219 164.11 392.84 163.858 389.174 161.742C388.911 161.56 388.613 161.434 388.299 161.372C387.489 161.281 386.898 162.081 386.372 162.714C385.02 164.325 383.029 165.248 381.279 166.435C378.016 168.653 375.466 171.702 373.11 174.811Z" fill="#5B5583"/>
<path d="M417.716 190.227C418.554 192.879 418.473 195.714 418.747 198.48C418.909 200.148 419.201 201.802 419.622 203.425C419.813 204.317 420.159 205.169 420.641 205.943C421.124 206.652 421.817 207.226 422.123 208.026C422.29 208.568 422.364 209.135 422.343 209.702L422.407 213.407C422.545 215.37 422.246 217.339 421.532 219.173L419.219 226.213C417.969 230.025 416.686 233.896 414.432 237.215C414.114 237.776 413.633 238.228 413.052 238.509C412.598 238.629 412.132 238.701 411.662 238.723C410.844 238.869 410.102 239.296 409.564 239.93C409.027 240.564 408.726 241.366 408.716 242.197C408.179 241.412 407.508 240.727 406.735 240.173L402.028 236.414C400.418 235.104 398.738 233.773 396.785 233.016C399.412 232.195 401.745 230.628 403.5 228.507C405.255 226.385 406.356 223.799 406.671 221.063C406.669 220.249 406.853 219.445 407.208 218.712C407.599 218.078 408.324 217.595 408.378 216.848C408.442 215.909 407.379 215.2 407.379 214.26C407.379 213.638 407.841 213.122 408.045 212.537C408.235 211.814 408.235 211.053 408.045 210.33L407.395 206.722C407.357 206.36 407.248 206.01 407.073 205.691C406.83 205.385 406.561 205.101 406.268 204.842C405.152 203.591 405.646 201.621 406.268 200.08C407.698 196.659 409.54 193.426 411.753 190.452C412.541 189.454 413.271 188.41 413.938 187.327C414.507 186.34 414.636 184.97 415.237 184.106C416.01 186.135 417.056 188.138 417.716 190.227Z" fill="#5B5583"/>
<path d="M396.618 233.236C396.379 233.414 396.172 233.632 396.006 233.88C395.374 234.674 394.532 235.275 393.575 235.614C394.112 236.001 394.6 236.382 395.105 236.774C398.837 239.658 402.256 242.928 405.302 246.53C405.64 245.322 407.664 245.408 408.157 244.254C408.274 243.923 408.311 243.57 408.265 243.223C408.162 241.414 407.904 239.618 407.492 237.853C407.329 236.945 406.962 236.086 406.419 235.341C405.667 234.433 404.497 233.998 403.381 233.622C401.69 233.032 398.336 232.199 396.618 233.236Z" fill="#323444"/>
<path d="M389.909 237.456C388.299 238.648 386.888 240.141 385.079 240.957C383.802 241.537 382.347 241.789 381.231 242.654C381.837 243.991 383.415 244.683 384.88 244.63C386.347 244.485 387.753 243.97 388.965 243.132C389.925 242.541 391.053 241.854 392.099 242.267C392.26 243.083 391.562 243.851 391.562 244.678C391.562 245.505 392.249 246.106 392.926 246.541C396.146 248.619 400.289 248.447 404.127 248.206C404.347 248.214 404.564 248.15 404.744 248.023C404.827 247.926 404.89 247.813 404.93 247.692C404.97 247.57 404.985 247.442 404.975 247.314C405.023 246.466 405.045 245.623 405.05 244.775C405.158 244.091 405.07 243.39 404.794 242.754C404.518 242.119 404.067 241.576 403.493 241.188C401.411 239.397 399.165 237.806 396.785 236.436C394.423 235.067 392.029 235.878 389.909 237.456Z" fill="#FBB3B2"/>
<path d="M376.229 136.979C373.846 137.263 372.112 139.126 372.354 141.151C372.595 143.175 374.72 144.571 377.103 144.281C379.486 143.991 381.22 142.133 380.978 140.114C380.737 138.095 378.612 136.694 376.229 136.979ZM377.039 143.723C375.021 143.964 373.223 142.778 373.014 141.07C372.804 139.363 374.28 137.784 376.293 137.542C378.306 137.301 380.109 138.487 380.318 140.195C380.528 141.902 379.052 143.481 377.039 143.723V143.723Z" fill="#3C354C"/>
<path d="M364.614 138.375C362.231 138.659 360.498 140.522 360.739 142.541C360.981 144.56 363.106 145.962 365.489 145.677C367.872 145.392 369.606 143.529 369.364 141.505C369.123 139.481 366.997 138.09 364.614 138.375ZM365.425 145.113C363.407 145.355 361.609 144.168 361.405 142.466C361.201 140.764 362.666 139.18 364.684 138.933C366.702 138.686 368.5 139.878 368.704 141.586C368.908 143.293 367.437 144.872 365.425 145.113Z" fill="#3C354C"/>
<path d="M355.989 139.411L361.168 140.517L360.659 141.881L355.775 140.447L355.989 139.411Z" fill="#3C354C"/>
<path d="M384.859 135.942L380.082 138.246L380.903 139.449L385.31 136.898L384.859 135.942Z" fill="#3C354C"/>
<path d="M368.886 140.173L372.52 139.739L372.332 140.641L369.214 140.85L368.886 140.173Z" fill="#3C354C"/>
<path d="M361.839 138.955C362.181 138.219 362.364 137.419 362.376 136.608C362.389 136.123 362.472 135.642 362.623 135.18C362.887 134.594 363.288 134.08 363.793 133.682C365.468 132.264 367.867 131.534 370.234 131.432C372.814 131.313 375.382 131.868 377.683 133.043C378.386 133.372 379.016 133.84 379.535 134.417C380.286 135.336 380.447 136.522 381.204 137.43C381.72 137.98 382.37 138.388 383.09 138.614C383.811 138.84 384.577 138.876 385.315 138.718C385.578 137.784 385.235 136.796 385.369 135.84C385.58 135.021 385.866 134.223 386.222 133.456C387.054 131.003 385.841 128.157 383.34 126.691C382.465 126.154 381.429 125.805 380.775 125.08C380.12 124.355 379.964 123.603 379.513 122.879C378.316 120.962 375.22 120.065 372.863 120.951C372.123 121.23 371.468 121.654 370.717 121.955C369.321 122.53 367.732 122.632 366.197 122.825C364.684 122.965 363.205 123.353 361.818 123.974C360.492 124.629 359.381 125.681 359.075 126.938C358.93 127.518 358.963 128.119 358.818 128.694C358.077 131.609 353.295 133.027 353.027 136.001C352.93 137.075 353.515 138.106 354.245 138.981C354.749 139.577 355.957 141.172 356.81 141.403C357.664 141.634 358.313 140.823 359.129 140.544C360.417 140.141 361.195 140.055 361.839 138.955Z" fill="#CBCEDA"/>
<path d="M422.386 328.07C422.386 355.046 439.303 376.878 460.208 376.878Z" fill="#46455B"/>
<path d="M460.208 376.883C460.208 349.601 479.089 327.528 502.42 327.528Z" fill="#6C63FF"/>
<path d="M436.093 330.518C436.093 356.146 446.881 376.883 460.208 376.883Z" fill="#6C63FF"/>
<path d="M460.208 376.883C460.208 342.025 482.03 313.814 508.995 313.814Z" fill="#46455B"/>
<path opacity="0.1" d="M458.571 386.204C463.764 386.204 467.974 385.493 467.974 384.615C467.974 383.737 463.764 383.026 458.571 383.026C453.377 383.026 449.168 383.737 449.168 384.615C449.168 385.493 453.377 386.204 458.571 386.204Z" fill="#6C63FF"/>
<path d="M452.254 377.227C452.254 377.227 457.621 377.06 459.231 375.911C460.841 374.762 467.48 373.382 467.883 375.229C468.285 377.076 475.933 384.416 469.885 384.465C463.836 384.513 455.812 383.52 454.202 382.537C452.592 381.554 452.254 377.227 452.254 377.227Z" fill="#A8A8A8"/>
<path opacity="0.2" d="M469.997 383.82C463.943 383.869 455.93 382.875 454.315 381.893C453.086 381.146 452.597 378.456 452.431 377.221H452.254C452.254 377.221 452.592 381.549 454.207 382.532C455.823 383.514 463.836 384.508 469.89 384.459C471.64 384.459 472.241 383.82 472.209 382.902C471.967 383.461 471.328 383.81 469.997 383.82Z" fill="black"/>
<path d="M12.0706 343.834C12.0706 365.312 25.5259 382.666 42.1586 382.666Z" fill="#46455B"/>
<path d="M42.1586 382.666C42.1586 360.963 57.1865 343.399 75.7406 343.399Z" fill="#6C63FF"/>
<path d="M22.9712 345.789C22.9712 366.193 31.5586 382.677 42.1586 382.677Z" fill="#6C63FF"/>
<path d="M42.1586 382.666C42.1586 354.933 59.5212 332.489 80.9735 332.489Z" fill="#46455B"/>
<path opacity="0.1" d="M40.8544 390.086C44.9864 390.086 48.3361 389.519 48.3361 388.819C48.3361 388.119 44.9864 387.552 40.8544 387.552C36.7223 387.552 33.3727 388.119 33.3727 388.819C33.3727 389.519 36.7223 390.086 40.8544 390.086Z" fill="#6C63FF"/>
<path d="M35.8308 382.94C35.8308 382.94 40.0976 382.805 41.3804 381.866C42.6631 380.926 47.9497 379.852 48.2664 381.329C48.583 382.805 54.68 388.637 49.8765 388.674C45.0729 388.712 38.6807 387.923 37.398 387.144C36.1152 386.365 35.8308 382.94 35.8308 382.94Z" fill="#A8A8A8"/>
<path opacity="0.2" d="M49.9463 388.207C45.1159 388.245 38.7505 387.455 37.4677 386.671C36.4909 386.081 36.1045 383.938 35.9703 382.956H35.8308C35.8308 382.956 36.0991 386.398 37.3819 387.182C38.6646 387.965 45.0461 388.749 49.8604 388.712C51.2505 388.712 51.7335 388.207 51.7067 387.471C51.5135 387.901 50.9821 388.175 49.9463 388.207Z" fill="black"/>
</g>
<defs>
<clipPath id="clip0_14_171">
<rect width="509" height="407" fill="white"/>
</clipPath>
</defs>
</svg>
