<svg width="273" height="55" viewBox="0 0 273 55" fill="none" xmlns="http://www.w3.org/2000/svg">
<path d="M33.1884 29.2756C35.9391 29.2756 38.5771 28.1819 40.5221 26.235C42.4671 24.2881 43.5598 21.6475 43.5598 18.8942C43.5598 16.1408 42.4671 13.5003 40.5221 11.5534C38.5771 9.60649 35.9391 8.51274 33.1884 8.51274C30.4378 8.51274 27.7998 9.60649 25.8548 11.5534C23.9097 13.5003 22.817 16.1408 22.817 18.8942C22.817 21.6475 23.9097 24.2881 25.8548 26.235C27.7998 28.1819 30.4378 29.2756 33.1884 29.2756Z" fill="#6C63FF"/>
<path d="M8.29711 0C6.09658 0 3.98618 0.875004 2.43017 2.43252C0.874157 3.99004 0 6.10248 0 8.30515V41.5257C0 43.7284 0.874157 45.8408 2.43017 47.3984C3.98618 48.9559 6.09658 49.8309 8.29711 49.8309H58.0798C60.2803 49.8309 62.3907 48.9559 63.9467 47.3984C65.5027 45.8408 66.3769 43.7284 66.3769 41.5257V8.30515C66.3769 6.10248 65.5027 3.99004 63.9467 2.43252C62.3907 0.875004 60.2803 0 58.0798 0H8.29711ZM53.0932 45.6783C51.2139 40.4045 45.7917 33.2206 33.1884 33.2206C20.5893 33.2206 15.163 40.4045 13.2837 45.6783H8.29711C7.19684 45.6783 6.14164 45.2408 5.36364 44.462C4.58563 43.6833 4.14855 42.6271 4.14855 41.5257V8.30515C4.14855 7.20382 4.58563 6.14759 5.36364 5.36883C6.14164 4.59008 7.19684 4.15257 8.29711 4.15257H58.0798C59.18 4.15257 60.2352 4.59008 61.0132 5.36883C61.7912 6.14759 62.2283 7.20382 62.2283 8.30515V41.5257C62.2283 42.6271 61.7912 43.6833 61.0132 44.462C60.2352 45.2408 59.18 45.6783 58.0798 45.6783H53.0932Z" fill="#6C63FF"/>
<path d="M91.0691 14.2738C91.0691 16.566 89.7415 18.1938 86.7878 18.1938H82.606V10.4534H86.7878C89.7415 10.4534 91.0691 11.9483 91.0691 14.2738ZM78.8225 7.36389V30.4522H82.606V21.2169H85.4934L90.8035 30.4522H95.3172L89.6088 20.8847C93.4918 19.9213 94.9521 16.9979 94.9521 14.2738C94.9521 10.5199 92.2638 7.36389 86.7878 7.36389H78.8225Z" fill="#6C63FF"/>
<path d="M107.492 15.0379C110.313 15.0379 112.537 16.8318 112.603 19.6555H102.48C102.879 16.7653 104.936 15.0379 107.492 15.0379ZM116.054 25.004H111.972C111.275 26.4325 109.981 27.562 107.658 27.562C104.87 27.562 102.713 25.7349 102.447 22.7118H116.42C116.519 22.0806 116.552 21.4826 116.552 20.8515C116.552 15.4697 112.868 11.8487 107.658 11.8487C102.248 11.8487 98.531 15.5362 98.531 21.2833C98.531 27.0305 102.414 30.7512 107.658 30.7512C112.138 30.7512 115.026 28.1932 116.054 25.004Z" fill="#6C63FF"/>
<path d="M119.014 21.2169C119.014 26.8644 122.831 30.7512 127.577 30.7512C130.63 30.7512 132.821 29.2895 133.982 27.7281V30.4522H137.799V12.1477H133.982V14.8053C132.854 13.3104 130.73 11.8487 127.643 11.8487C122.831 11.8487 119.014 15.5694 119.014 21.2169ZM133.982 21.2833C133.982 25.2366 131.294 27.4623 128.44 27.4623C125.619 27.4623 122.898 25.1701 122.898 21.2169C122.898 17.2636 125.619 15.1375 128.44 15.1375C131.294 15.1375 133.982 17.3633 133.982 21.2833Z" fill="#6C63FF"/>
<path d="M141.507 21.2833C141.507 27.0305 145.225 30.7512 150.468 30.7512C154.949 30.7512 157.869 28.2596 158.898 24.6718H154.816C154.119 26.5654 152.725 27.562 150.468 27.562C147.415 27.562 145.39 25.303 145.39 21.2833C145.39 17.2969 147.415 15.0379 150.468 15.0379C152.725 15.0379 154.185 16.1674 154.816 17.928H158.898C157.869 14.0745 154.949 11.8487 150.468 11.8487C145.225 11.8487 141.507 15.5694 141.507 21.2833Z" fill="#6C63FF"/>
<path d="M163.266 25.3695C163.266 29.0902 165.291 30.4522 168.543 30.4522H171.53V27.2962H169.207C167.614 27.2962 167.083 26.7315 167.083 25.3695V15.2372H171.53V12.1477H167.083V7.59644H163.266V12.1477H161.109V15.2372H163.266V25.3695Z" fill="#6C63FF"/>
<path d="M182.311 18.825C182.311 25.7681 187.389 30.6515 194.059 30.6515C199.204 30.6515 203.385 27.9274 204.945 23.1437H199.602C198.507 25.4027 196.515 26.499 194.026 26.499C189.977 26.499 187.09 23.5091 187.09 18.825C187.09 14.1077 189.977 11.151 194.026 11.151C196.515 11.151 198.507 12.2473 199.602 14.4731H204.945C203.385 9.72256 199.204 6.96525 194.059 6.96525C187.389 6.96525 182.311 11.8819 182.311 18.825Z" fill="#6C63FF"/>
<path d="M208.914 30.4522H213.56V5.86897H208.914V30.4522Z" fill="#6C63FF"/>
<path d="M216.956 21.1837C216.956 26.9308 220.673 30.7512 225.32 30.7512C228.24 30.7512 230.331 29.3559 231.426 27.7613V30.4522H236.106V12.048H231.426V14.6724C230.331 13.1443 228.307 11.749 225.353 11.749C220.673 11.749 216.956 15.4365 216.956 21.1837ZM231.426 21.2501C231.426 24.7383 229.103 26.6651 226.548 26.6651C224.058 26.6651 221.702 24.6718 221.702 21.1837C221.702 17.6955 224.058 15.8351 226.548 15.8351C229.103 15.8351 231.426 17.7619 231.426 21.2501Z" fill="#6C63FF"/>
<path d="M254.915 25.2034C254.782 18.4596 244.593 20.5525 244.593 17.1972C244.593 16.1341 245.489 15.4365 247.215 15.4365C249.041 15.4365 250.169 16.3999 250.302 17.8284H254.749C254.483 14.1741 251.795 11.749 247.348 11.749C242.801 11.749 240.08 14.2073 240.08 17.2636C240.08 24.0074 250.468 21.9145 250.468 25.2034C250.468 26.2664 249.472 27.0969 247.647 27.0969C245.788 27.0969 244.494 26.0339 244.328 24.6386H239.648C239.847 28.0603 243.067 30.7512 247.68 30.7512C252.16 30.7512 254.915 28.3593 254.915 25.2034Z" fill="#6C63FF"/>
<path d="M273 25.2034C272.867 18.4596 262.678 20.5525 262.678 17.1972C262.678 16.1341 263.574 15.4365 265.3 15.4365C267.126 15.4365 268.254 16.3999 268.387 17.8284H272.834C272.569 14.1741 269.88 11.749 265.433 11.749C260.886 11.749 258.165 14.2073 258.165 17.2636C258.165 24.0074 268.553 21.9145 268.553 25.2034C268.553 26.2664 267.557 27.0969 265.732 27.0969C263.873 27.0969 262.579 26.0339 262.413 24.6386H257.733C257.932 28.0603 261.152 30.7512 265.765 30.7512C270.245 30.7512 273 28.3593 273 25.2034Z" fill="#6C63FF"/>
<path d="M115.615 45.1933V44.1302H113.757V55H115.615V50.4421C116.067 51.0401 116.89 51.6115 118.045 51.6115C119.93 51.6115 121.403 50.0834 121.403 47.7845C121.403 45.4856 119.93 44.0106 118.045 44.0106C116.903 44.0106 116.053 44.5687 115.615 45.1933ZM119.505 47.7845C119.505 49.1798 118.562 49.977 117.553 49.977C116.558 49.977 115.615 49.2063 115.615 47.8111C115.615 46.4158 116.558 45.6451 117.553 45.6451C118.562 45.6451 119.505 46.3892 119.505 47.7845Z" fill="#6C63FF"/>
<path d="M132.312 47.8111C132.312 45.4856 130.653 44.0106 128.529 44.0106C126.405 44.0106 124.745 45.4856 124.745 47.8111C124.745 50.1232 126.351 51.6115 128.476 51.6115C130.613 51.6115 132.312 50.1232 132.312 47.8111ZM126.63 47.8111C126.63 46.3361 127.52 45.6318 128.502 45.6318C129.484 45.6318 130.4 46.3361 130.4 47.8111C130.4 49.2728 129.458 49.9903 128.476 49.9903C127.48 49.9903 126.63 49.2728 126.63 47.8111Z" fill="#6C63FF"/>
<path d="M137.472 51.4919H139.49L140.831 46.3494L142.172 51.4919H144.176L146.327 44.1302H144.548L143.247 49.7246L141.866 44.1302H139.902L138.494 49.7379L137.193 44.1302H135.308L137.472 51.4919Z" fill="#6C63FF"/>
<path d="M152.948 45.5388C153.904 45.5388 154.674 46.15 154.7 47.1201H151.209C151.355 46.1102 152.058 45.5388 152.948 45.5388ZM156.439 49.1798H154.435C154.196 49.6714 153.758 50.0701 152.961 50.0701C152.032 50.0701 151.289 49.4588 151.196 48.3692H156.572C156.612 48.13 156.625 47.8908 156.625 47.6516C156.625 45.4591 155.125 44.0106 153.001 44.0106C150.824 44.0106 149.31 45.4856 149.31 47.8111C149.31 50.1232 150.864 51.6115 153.001 51.6115C154.82 51.6115 156.041 50.5352 156.439 49.1798Z" fill="#6C63FF"/>
<path d="M162.296 47.8244C162.296 46.4025 162.96 45.9773 164.062 45.9773H164.553V44.0239C163.531 44.0239 162.761 44.5156 162.296 45.273V44.1302H160.438V51.4919H162.296V47.8244Z" fill="#6C63FF"/>
<path d="M171.42 45.5388C172.376 45.5388 173.146 46.15 173.173 47.1201H169.681C169.827 46.1102 170.531 45.5388 171.42 45.5388ZM174.912 49.1798H172.907C172.668 49.6714 172.23 50.0701 171.434 50.0701C170.504 50.0701 169.761 49.4588 169.668 48.3692H175.045C175.084 48.13 175.098 47.8908 175.098 47.6516C175.098 45.4591 173.598 44.0106 171.474 44.0106C169.296 44.0106 167.783 45.4856 167.783 47.8111C167.783 50.1232 169.336 51.6115 171.474 51.6115C173.292 51.6115 174.514 50.5352 174.912 49.1798Z" fill="#6C63FF"/>
<path d="M178.432 47.7845C178.432 50.0834 179.919 51.6115 181.791 51.6115C182.946 51.6115 183.769 51.08 184.207 50.4023V51.4919H186.092V41.6586H184.207V45.1534C183.703 44.4624 182.773 44.0106 181.804 44.0106C179.919 44.0106 178.432 45.4856 178.432 47.7845ZM184.22 47.8111C184.22 49.2063 183.291 49.977 182.269 49.977C181.273 49.977 180.331 49.1798 180.331 47.7845C180.331 46.3892 181.273 45.6451 182.269 45.6451C183.291 45.6451 184.22 46.4158 184.22 47.8111Z" fill="#6C63FF"/>
<path d="M197.841 45.2066V41.6586H195.983V51.4919H197.841V50.4421C198.292 51.08 199.116 51.6115 200.271 51.6115C202.156 51.6115 203.629 50.0834 203.629 47.7845C203.629 45.4856 202.156 44.0106 200.271 44.0106C199.155 44.0106 198.292 44.5289 197.841 45.2066ZM201.731 47.7845C201.731 49.1798 200.788 49.977 199.779 49.977C198.784 49.977 197.841 49.2063 197.841 47.8111C197.841 46.4158 198.784 45.6451 199.779 45.6451C200.788 45.6451 201.731 46.3892 201.731 47.7845Z" fill="#6C63FF"/>
<path d="M210.569 49.2728L208.67 44.1302H206.586L209.533 51.3059L207.94 54.9734H209.918L214.472 44.1302H212.494L210.569 49.2728Z" fill="#6C63FF"/>
<path d="M226.788 42.2167H223.549V51.4919H226.788C229.748 51.4919 231.673 49.6714 231.673 46.8676C231.673 44.0505 229.748 42.2167 226.788 42.2167ZM225.407 49.9106V43.7847H226.721C228.673 43.7847 229.775 44.9408 229.775 46.8676C229.775 48.7944 228.673 49.9106 226.721 49.9106H225.407Z" fill="#6C63FF"/>
<path d="M242.623 47.8111C242.623 45.4856 240.963 44.0106 238.839 44.0106C236.715 44.0106 235.056 45.4856 235.056 47.8111C235.056 50.1232 236.662 51.6115 238.786 51.6115C240.923 51.6115 242.623 50.1232 242.623 47.8111ZM236.941 47.8111C236.941 46.3361 237.83 45.6318 238.813 45.6318C239.795 45.6318 240.711 46.3361 240.711 47.8111C240.711 49.2728 239.768 49.9903 238.786 49.9903C237.79 49.9903 236.941 49.2728 236.941 47.8111Z" fill="#6C63FF"/>
<path d="M246.442 51.4919H248.3V41.6586H246.442V51.4919Z" fill="#6C63FF"/>
<path d="M254.451 45.2066V41.6586H252.593V51.4919H254.451V50.4421C254.903 51.08 255.726 51.6115 256.881 51.6115C258.766 51.6115 260.239 50.0834 260.239 47.7845C260.239 45.4856 258.766 44.0106 256.881 44.0106C255.766 44.0106 254.903 44.5289 254.451 45.2066ZM258.341 47.7845C258.341 49.1798 257.398 49.977 256.389 49.977C255.394 49.977 254.451 49.2063 254.451 47.8111C254.451 46.4158 255.394 45.6451 256.389 45.6451C257.398 45.6451 258.341 46.3892 258.341 47.7845Z" fill="#6C63FF"/>
<path d="M267.179 49.2728L265.28 44.1302H263.196L266.143 51.3059L264.55 54.9734H266.528L271.082 44.1302H269.104L267.179 49.2728Z" fill="#6C63FF"/>
<path d="M95.1402 34.8816H272.145V37.0963H95.1402V34.8816Z" fill="#6C63FF"/>
</svg>
